<svg width="24" height="24" viewBox="0 0 24 24" fill="none" xmlns="http://www.w3.org/2000/svg">
<path fill-rule="evenodd" clip-rule="evenodd" d="M5.35649 3C4.05458 3 3 3.94723 3 5.11689C3 6.28483 4.05458 7.2312 5.35649 7.2312C6.65754 7.2312 7.71126 6.28483 7.71126 5.11689C7.71126 3.94723 6.65754 3 5.35649 3ZM17.2978 8.63101C15.5493 8.63101 14.5849 9.21326 13.4745 10.6234V9.00887H9.25534V20.9991H13.4737V14.4836C13.4737 13.1087 14.1349 11.7638 15.7168 11.7638C17.2978 11.7638 17.686 13.1087 17.686 14.451V21H21.8931V14.1839C21.8931 9.44771 19.048 8.63101 17.2978 8.63101ZM3.23531 20.9991H7.46135V9.00887H3.23531V20.9991Z" fill="#222222"/>
</svg>
