<svg width="19" height="16" viewBox="0 0 19 16" fill="none" xmlns="http://www.w3.org/2000/svg">
<path fill-rule="evenodd" clip-rule="evenodd" d="M19 1.82796C18.301 2.13829 17.5497 2.34808 16.7612 2.4415C17.5663 1.95937 18.1838 1.19542 18.4751 0.285C17.7222 0.732292 16.8878 1.05608 15.9996 1.23104C15.2887 0.473417 14.2761 0 13.1543 0C11.0018 0 9.25696 1.74563 9.25696 3.89817C9.25696 4.20375 9.291 4.50142 9.3575 4.78642C6.118 4.62413 3.24504 3.07246 1.32288 0.714083C0.987208 1.28962 0.794833 1.95858 0.794833 2.67346C0.794833 4.02563 1.48358 5.21867 2.52938 5.9185C1.8905 5.89792 1.28883 5.72217 0.763958 5.43004C0.763167 5.44667 0.763167 5.46329 0.763167 5.47992C0.763167 7.36804 2.10663 8.94346 3.89025 9.30208C3.56329 9.39075 3.21892 9.43825 2.86346 9.43825C2.61171 9.43825 2.36788 9.4145 2.12958 9.36858C2.62596 10.9171 4.06521 12.0444 5.77125 12.0761C4.4365 13.1211 2.75658 13.7441 0.929417 13.7441C0.615125 13.7441 0.304792 13.7259 0 13.6903C1.72504 14.7962 3.77387 15.4415 5.9755 15.4415C13.1456 15.4415 17.066 9.50158 17.066 4.35021C17.066 4.18158 17.0628 4.01296 17.0549 3.84592C17.8165 3.2965 18.4775 2.61013 19 1.82796Z" fill="#222222"/>
</svg>
